<?xml version="1.0" encoding="utf-8"?>
<!-- Generator: Adobe Illustrator 23.1.0, SVG Export Plug-In . SVG Version: 6.00 Build 0)  -->
<svg version="1.1" id="图层_1" xmlns="http://www.w3.org/2000/svg" xmlns:xlink="http://www.w3.org/1999/xlink" x="0px" y="0px"
	 width="500px" height="500px" viewBox="0 0 500 500" style="enable-background:new 0 0 500 500;" xml:space="preserve">
<style type="text/css">
	.st0{fill:#E4592E;}
	.st1{fill:#E4592E;stroke:#000000;stroke-width:11;stroke-miterlimit:10;}
</style>
<path class="st0" d="M92.71,187.69H18.79c0,0-16.61,0-16.61,22.42s0,68.1,0,68.1c0,50,40.53,90.53,90.53,90.53
	s90.53-40.53,90.53-90.53S142.7,187.69,92.71,187.69z"/>
<path class="st0" d="M411.24,366.05v-17c39.06,0,70.83-31.78,70.83-70.83v-59.68c0-11.02-5.81-11.15-6.06-11.15h-64.78v-17h64.78
	c6.41,0,23.06,5.06,23.06,28.15v59.68C499.07,326.65,459.67,366.05,411.24,366.05z"/>
<path class="st1" d="M389.56,286.24"/>
<path class="st0" d="M262.57,286.24c0-19.31,15.65-34.96,34.96-34.96s34.96,15.65,34.96,34.96"/>
<path class="st0" d="M393.38,286.24h-17c0-43.48-35.37-78.85-78.85-78.85s-78.85,35.37-78.85,78.85h-17
	c0-52.85,43-95.85,95.85-95.85S393.38,233.38,393.38,286.24z"/>
</svg>
